<?xml version="1.0" encoding="utf-8"?>
<?xml-stylesheet type="text/xsl" href="rss1.xsl"?>
<rss version="2.0" xmlns:atom="http://www.w3.org/2005/Atom" xmlns:content="http://purl.org/rss/1.0/modules/content/" xmlns:dc="http://purl.org/dc/elements/1.1/" xmlns:media="http://search.yahoo.com/mrss/">
<channel>
 <title>Getty</title>
 <link>http://www.gettyimg.com/</link>
 <atom:link href="http://www.gettyimg.com/" rel="self" type="application/rss+xml" />

 
                <item>
                <title><![CDATA[【HD Live Performances】HDTV - BLACKPINK - «Playing With Fire» - Live at Coachella 2023: Weak One | 1080p]]></title>
                <link><![CDATA[https://sharemania.us/threads/blackpink-%C2%ABplaying-with-fire%C2%BB-live-at-coachella-2023-weak-one-1080p.228384/]]></link>
                <description><![CDATA[<article>
<blockquote class="messageText SelectQuoteContainer ugc baseHtml">
<div style="text-align: center"><img src="https://i.imgur.com/gOz3QHu.png" class="bbCodeImage LbImage" alt="[​IMG]" data-url="https://i.imgur.com/gOz3QHu.png" style=""> <br>
<br>
<img src="https://i.imgur.com/hDdSmMP.jpg" class="bbCodeImage LbImage" alt="[​IMG]" data-url="https://i.imgur.com/hDdSmMP.jpg" style=""> <br>
<br>
<div class="ToggleTriggerAnchor bbCodeSpoilerContainer">
<button type="button" class="button bbCodeSpoilerButton ToggleTrigger Tooltip JsOnly" data-target="> .SpoilerTarget"><span>Spoiler: <span class="SpoilerTitle">Media Info</span></span></button>
<div class="SpoilerTarget bbCodeSpoilerText">
<div class="bbCodeBlock bbCodeQuote">
<aside>
<blockquote class="quoteContainer"><div class="quote">General<br>
Complete name : C:\Live\B_P - Coa_Che_Lla - Week One - PWF-2023.mp4<br>
Format : MPEG-4<br>
Format profile : Base Media<br>
Codec ID : isom (isom/iso2/avc1/mp41)<br>
File size : 359 MiB<br>
Duration : 3 min 17 s<br>
Overall bit rate mode : Variable<br>
Overall bit rate : 15.2 Mb/s<br>
Frame rate : 29.970 FPS<br>
Encoded date : 2023-04-20 10:19:54 UTC<br>
Tagged date : 2023-04-20 10:19:54 UTC<br>
Writing application : Lavf60.3.100<br>
<br>
Video<br>
ID : 1<br>
Format : AVC<br>
Format/Info : Advanced Video Codec<br>
Format profile : High@L4<br>
Format settings : CABAC / 4 Ref Frames<br>
Format settings, CABAC : Yes<br>
Format settings, Reference frames : 4 frames<br>
Codec ID : avc1<br>
Codec ID/Info : Advanced Video Coding<br>
Duration : 3 min 17 s<br>
Source duration : 3 min 17 s<br>
Bit rate mode : Variable<br>
Bit rate : 14.5 Mb/s<br>
Maximum bit rate : 16.0 Mb/s<br>
Width : 1 920 pixels<br>
Height : 1 080 pixels<br>
Display aspect ratio : 16:9<br>
Frame rate mode : Constant<br>
Frame rate : 29.970 (30000/1001) FPS<br>
Standard : Component<br>
Color spac : YUV<br>
Chroma subsampling : 4:2:0<br>
Bit depth : 8 bits<br>
Scan type : Progressive<br>
Bits/(Pixel*Frame) : 0.233<br>
Stream size : 341 MiB (95%)<br>
Source stream size : 355 MiB (99%)<br>
Encoded date : 2023-04-20 10:19:54 UTC<br>
Tagged date : 2023-04-20 10:19:54 UTC<br>
Color range : Limited<br>
Color primaries : BT.709<br>
Transfer characteristics : BT.709<br>
Matrix coefficients : BT.709<br>
mdhd_Duration : 197898<br>
Codec configuration box : avcC<br>
<br>
Audio<br>
ID : 2<br>
Format : AAC LC<br>
Format/Info : Advanced Audio Codec Low Complexity<br>
Codec ID : mp4a-40-2<br>
Duration : 3 min 17 s<br>
Bit rate mode : Constant<br>
Bit rate : 126 kb/s<br>
Channel(s) : 2 channels<br>
Channel layout : L R<br>
Sampling rate : 48.0 kHz<br>
Frame rate : 46.875 FPS (1024 SPF)<br>
Compression mode : Lossy<br>
Stream size : 2.96 MiB (1%)<br>
Language : Czech<br>
Default : Yes<br>
Alternate group : 1<br>
Encoded date : 2023-04-20 10:19:54 UTC<br>
Tagged date : 2023-04-20 10:19:54 UTC</div><div class="quoteExpand">Click to expand...</div></blockquote>
</aside>
</div></div>
</div><b><span style="font-family: 'Book Antiqua'"><span style="font-size: 26px">
<div class="ToggleTriggerAnchor bbCodeSpoilerContainer">
<button type="button" class="button bbCodeSpoilerButton ToggleTrigger Tooltip JsOnly" data-target="> .SpoilerTarget"><span>Spoiler: <span class="SpoilerTitle">Credits</span></span></button>
<div class="SpoilerTarget bbCodeSpoilerText"><span style="color: rgb(179, 179, 0)">Original Uploader</span> - <span style="color: rgb(0, 255, 0)">John_Wayne</span> from <span style="color: rgb(0, 128, 255)">4sashi</span><br>
<b><span style="color: rgb(179, 179, 0)">Ripper</span> : <a href="https://sharemania.us/members/withlovesnsd.161561/" class="internalLink"> WithLoveSNSD </a></b></div>
</div></span></span></b><span style="font-family: 'Book Antiqua'">
<div class="bbCodeBlock bbCodeVfcHH HiddenContent">
<div class="attribution type">Hidden Content:</div>
<blockquote>You must reply before you can see the hidden data contained here.</blockquote>
</div></span>​</div>
<div class="messageTextEndMarker">&nbsp;</div>
</blockquote>
</article>]]></description>
                <author><![CDATA[WithLoveSNSD]]></author>
                </item>

                
                <item>
                <title><![CDATA[【Requests】[REQ CAP] - [REQ AUD] Choir Boy - Passive With Desire (MP3 or FLAC)]]></title>
                <link><![CDATA[https://sharemania.us/threads/req-aud-choir-boy-passive-with-desire-mp3-or-flac.228383/]]></link>
                <description><![CDATA[<article>
<blockquote class="messageText SelectQuoteContainer ugc baseHtml">
I'd be grateful if anybody could source it for me. Thanks.
<div class="messageTextEndMarker">&nbsp;</div>
</blockquote>
</article>]]></description>
                <author><![CDATA[WelcomeToKissLand]]></author>
                </item>

                </channel></rss>